<svg width="711.071" height="705.07" xmlns="http://www.w3.org/2000/svg">

 <g>
  <title>background</title>
  <rect fill="none" id="canvas_background" height="402" width="582" y="-1" x="-1"/>
 </g>
 <g>
  <title>Layer 1</title>
  <circle id="svg_1" r="322.667999" fill="#ffffff" cy="350.522078" cx="346.664"/>
  <path id="svg_3" fill="#5191ff" d="m399.81,435.629c-29.263,0 -57.963,-10.129 -81.599,-29.826l-23.072,56.274l-58.524,58.525c-6.189,4.502 -12.943,6.753 -20.26,6.753c-18.57,0 -33.764,-16.321 -33.764,-34.327c0,-7.315 2.25,-14.632 6.752,-20.259l57.963,-58.525l56.838,-23.073c-19.697,-23.634 -29.826,-52.897 -29.826,-82.16c0,-68.093 57.4,-124.365 125.492,-124.365c67.529,0 124.93,57.399 124.93,124.928c0,32.64 -11.82,64.716 -36.018,88.913c-24.76,24.762 -56.836,37.142 -88.912,37.142zm0,-48.397c41.643,0 76.533,-34.89 76.533,-77.659c0,-41.643 -35.454,-76.532 -76.533,-76.532c-42.206,0 -77.096,35.453 -77.096,76.532c0,20.26 7.315,39.955 22.509,55.149c15.194,14.632 34.89,22.51 54.587,22.51z"/>
 </g>
</svg>